# xmcd
# 
# Track frame offsets:
#     150
#     15012
#     29845
#     43120
#     59188
#     70949
#     83816
#     99091
#     112735
#     127836
#     138094
#     155771
# 
# Disc length: 2257
# 
# Revision: 1
# Processed by: cddbd v1.5.2PL0 Copyright (c) Steve Scherf et al.
# Submitted via: fre:ac v1.0.17
# 
DISCID=9408cf0c
DTITLE=J. J. Cale - The J.J. Cale Collection CD3
DYEAR=2011
DGENRE=Blues
TTITLE0=Anyway The Wind Blows
TTITLE1=Mona
TTITLE2=Let Me Do It To You
TTITLE3=Ride Me High
TTITLE4=Woman I love
TTITLE5=Boilin' Pot
TTITLE6=Trouble In The City
TTITLE7=Going Down
TTITLE8=Wish I Had Not Said That
TTITLE9=Teardrops In My Tequila
TTITLE10=Hard Times
TTITLE11=I Got The Same Old Blues
EXTD=
EXTT0=
EXTT1=
EXTT2=
EXTT3=
EXTT4=
EXTT5=
EXTT6=
EXTT7=
EXTT8=
EXTT9=
EXTT10=
EXTT11=
PLAYORDER=
